<?xml version="1.0" standalone="no"?>
<!DOCTYPE svg PUBLIC "-//W3C//DTD SVG 20010904//EN"
 "http://www.w3.org/TR/2001/REC-SVG-20010904/DTD/svg10.dtd">
<svg version="1.0" xmlns="http://www.w3.org/2000/svg"
 width="700.000000pt" height="700.000000pt" viewBox="0 0 700.000000 700.000000"
 preserveAspectRatio="xMidYMid meet">
<metadata>
Created by potrace 1.14, written by Peter Selinger 2001-2017
</metadata>
<g transform="translate(0.000000,700.000000) scale(0.100000,-0.100000)"
fill="#000000" stroke="none">
<path d="M2253 6024 c-17 -9 -37 -29 -43 -45 -13 -30 -13 -28 24 -166 8 -28
17 -75 20 -103 8 -66 20 -89 59 -105 44 -18 82 -8 113 28 24 28 26 37 21 92
-3 33 -8 71 -11 85 -3 14 -8 34 -10 45 -10 48 -48 141 -64 156 -26 26 -72 31
-109 13z"/>
<path d="M2943 5765 c-221 -51 -373 -254 -428 -573 -32 -186 -26 -256 26 -286
34 -20 62 -20 99 -1 34 17 46 53 54 150 19 253 109 440 241 501 122 57 267 3
372 -140 53 -72 70 -85 105 -86 41 0 75 19 91 53 20 41 13 72 -30 135 -72 106
-204 204 -323 241 -54 16 -149 19 -207 6z"/>
<path d="M4489 5672 c-40 -28 -60 -53 -79 -96 -50 -113 -78 -405 -49 -506 28
-97 108 -190 261 -302 40 -30 67 -73 63 -100 -8 -46 -107 -158 -220 -246 -149
-117 -353 -204 -535 -228 -98 -12 -114 -13 -205 -14 -257 -1 -422 27 -975 161
-113 28 -245 59 -295 69 -398 85 -658 84 -895 -3 -110 -40 -270 -154 -288
-205 -11 -31 -8 -281 3 -342 17 -87 65 -261 90 -325 123 -311 348 -622 644
-886 l73 -66 44 -134 c73 -224 271 -595 358 -671 37 -33 109 -59 164 -60 70
-1 150 47 201 119 25 36 75 177 86 243 7 39 9 42 34 36 139 -30 227 -47 286
-53 130 -15 389 -8 491 13 27 5 36 -1 86 -58 141 -160 370 -360 448 -391 51
-20 143 -16 190 7 54 27 106 91 125 154 19 58 23 214 9 317 -8 66 -39 208 -57
268 l-15 48 46 37 c313 254 532 541 713 937 107 236 202 568 244 860 19 136
32 152 162 190 197 59 229 70 302 108 103 52 176 110 228 181 95 128 121 240
124 527 2 103 -1 130 -15 151 -17 26 -57 46 -83 42 -7 -1 -20 -2 -28 -3 -9 0
-35 -22 -58 -47 -49 -54 -126 -107 -181 -124 -46 -15 -134 -17 -231 -7 -153
17 -179 18 -226 7 -27 -7 -76 -29 -108 -50 l-59 -38 -12 29 c-44 105 -172 188
-330 214 -217 37 -292 70 -339 153 -18 31 -44 65 -57 75 -34 25 -105 30 -135
9z"/>
<path d="M1783 5649 c-112 -20 -245 -113 -360 -251 -62 -76 -56 -148 17 -178
48 -20 77 -4 174 94 185 190 307 197 422 24 66 -99 136 -294 160 -442 3 -21 8
-48 10 -60 2 -11 9 -61 15 -111 12 -96 32 -143 64 -150 59 -13 78 -9 110 23
27 26 27 29 21 112 -6 82 -12 133 -20 175 -2 11 -7 40 -11 65 -12 71 -13 76
-35 158 -106 391 -310 586 -567 541z"/>
</g>
</svg>
